<svg xmlns="http://www.w3.org/2000/svg" width="54.882" height="55" viewBox="0 0 54.882 55">
  <g id="Group_34" data-name="Group 34" transform="translate(-50.525 -165.221)">
    <path id="Path_57" data-name="Path 57" d="M101.1,192.707c-.267.541-.832.419-1.267.528Q82.2,197.684,78.3,215.432c-.607-.461-.285-1.111-.289-1.661-.048-7.02-.064-14.04-.089-21.06a22.886,22.886,0,0,0-1.125-7.983c-3.4-11.439-14.763-19.937-25.945-19.44-.267-.06-.342.073-.314.311v26.745l.005.364c-.567,14.159,11.735,27.76,27.4,27.473a21.13,21.13,0,0,0,5.2-.414c12.641-2.079,22.895-14.554,22.227-27.049.769-13.517-10.928-26.339-25.027-27.433-2.529-.2-2.642-.08-2.367,2.448a27.667,27.667,0,0,0,19.927,23.985C98.968,192.042,100.174,191.934,101.1,192.707Z" transform="translate(0 0)" fill="#fefefd"/>
    <path id="Path_58" data-name="Path 58" d="M77.921,241.232c.025,7.02.04,14.04.089,21.06,0,.55-.318,1.2.289,1.661.073,1.6-.6,3.138-.352,4.748-15.668.288-27.97-13.314-27.4-27.473a1.215,1.215,0,0,0,.3-.039Z" transform="translate(0 -48.52)" fill="#6082ff"/>
    <path id="Path_59" data-name="Path 59" d="M77.943,192.794l-27.076-.043-.307-.325q0-13.372,0-26.745l.314-.311c11.182-.5,22.55,8,25.945,19.44A22.885,22.885,0,0,1,77.943,192.794Z" transform="translate(-0.022 -0.083)" fill="#436bff"/>
    <path id="Path_60" data-name="Path 60" d="M126.322,268.768c-.251-1.61.425-3.151.352-4.748q3.922-17.737,21.531-22.2c.434-.109,1,.012,1.267-.529l4.275.011c.668,12.494-9.587,24.969-22.227,27.049A21.13,21.13,0,0,1,126.322,268.768Z" transform="translate(-48.375 -48.588)" fill="#7d98ff"/>
    <path id="Path_61" data-name="Path 61" d="M153.718,192.718l-4.275-.011c-.923-.772-2.128-.665-3.191-.99a27.667,27.667,0,0,1-19.927-23.985c-.275-2.527-.162-2.644,2.367-2.448C142.79,166.378,154.487,179.2,153.718,192.718Z" transform="translate(-48.347 0)" fill="#94abff"/>
    <path id="Path_62" data-name="Path 62" d="M50.563,240.29l.307.325a1.214,1.214,0,0,1-.3.039C50.566,240.532,50.564,240.411,50.563,240.29Z" transform="translate(-0.024 -47.946)" fill="#8d002a"/>
    <path id="Path_63" data-name="Path 63" d="M50.863,165.383l-.314.311C50.52,165.456,50.6,165.323,50.863,165.383Z" transform="translate(-0.012 -0.094)" fill="#8d002a"/>
  </g>
</svg>
